<?xml version="1.0" encoding="UTF-8"?>
<svg id="Layer_1" xmlns="http://www.w3.org/2000/svg" version="1.1" viewBox="0 0 20 20">
  <!-- Generator: Adobe Illustrator 30.0.0, SVG Export Plug-In . SVG Version: 2.1.1 Build 123)  -->
  <defs>
    <style>
      .st0 {
        fill: #472b25;
      }
    </style>
  </defs>
  <path class="st0" d="M11.7,1.4v-.3c0-.4-.2-.6-.7-.4-.5.2-1,.3-1.5.5-1.1.3-2.2.6-3.4.6-.1,0-.2,0-.4,0,0,5.2.2,10.3.3,15.5.2-3.1,0-6.3.3-9.4,0,2.7,0,5.4.2,8.1,0,0,0-.2,0-.2,0-1.1,0-2.2,0-3.3,0-2.8.2-5.5.2-8.3,0-.3,0-.6,0-1,0-.5,0-.6.5-.7.8-.2,1.5-.4,2.3-.6.4,0,.8-.2,1.2-.4,0,5.8.2,11.6.2,17.5-.8-.3-1.5-.6-2.2-.8-.1,0-.3,0-.4-.1,0,0,0,0,.1.1.8.4,1.7.8,2.5,1.2,0,0,.1,0,.2,0,0-.2,0-.3,0-.5,0-1.7,0-3.3,0-5,0-2,0-4,0-6,0-1.7,0-3.4,0-5.1,0-.3,0-.6,0-.9v-.2c0-.1,0-.2,0-.3h0Z"/>
  <path class="st0" d="M8.5,18.1h0,0s0,0,0,0Z"/>
  <path class="st0" d="M10.3,10c-.4.1-.8.2-1.2.5.3.3.9.2,1.3-.2,0,0,0-.2-.2-.3Z"/>
  <path class="st0" d="M13.7,2.4c0,1.4,0,2.8,0,4.2,0,2.8,0,5.7.1,8.5,0,.7,0,1.3,0,2,0,0,0,0,0,.2,0-.4,0-.9,0-1.3,0-1.8,0-3.6.1-5.3,0-1.1,0-2.2,0-3.2,0-1.8,0-3.7,0-5.5,0-.1,0-.3,0-.4-.8,0-1.6,0-2.5.1v.2c.7,0,1.3.1,2,.2,0,.1,0,.2,0,.3h0Z"/>
  <path class="st0" d="M13.5,11.3c0-2.9,0-5.7-.1-8.6,0,0,0-.2,0-.3h-.5c.1,0,.2,0,.4,0v.4c0,.4,0,.9,0,1.3,0,1.5,0,3.1,0,4.6,0,2.5,0,5.1-.1,7.6v.5c-.4,0-.8,0-1.2.1,0-4,0-8,0-11.9h0v13.5h0c0-.4,0-.8.1-1.3.6,0,1.1.2,1.7,0v-1c0-1.7,0-3.4,0-5.1h0Z"/>
</svg>