<?xml version="1.0" encoding="UTF-8"?>
<svg id="Layer_1" xmlns="http://www.w3.org/2000/svg" version="1.1" viewBox="0 0 1006 265">
  <!-- Generator: Adobe Illustrator 30.0.0, SVG Export Plug-In . SVG Version: 2.1.1 Build 123)  -->
  <defs>
    <style>
      .st0 {
        fill: #472b25;
      }
    </style>
  </defs>
  <path class="st0" d="M469.8,233.2h-16.9c0-1.5,0-3,.2-4.4,2.1-16.5,4.4-33,6.4-49.6.8-6.3,2.3-12.7.8-19.2-1.8-7.5-6-11.3-13.7-12.1-10.6-1.1-18.4,3-23.5,12.3-4.3,8-6,16.7-7.2,25.5-2,14.8-3.9,29.7-5.9,44.5-.1.9-.6,1.8-1.1,3.2-3.7,0-7.4,0-11.2,0-1.5,0-2.9-.2-5.2-.4,4.3-32.2,8.5-64,12.8-96.2h16.1c-.4,3.8-.7,7.6-1.2,12.5,2.4-2.3,4.2-4,5.9-5.7,8.1-7.7,17.8-11.5,29-10.5,9.5.8,17,5,21.2,13.9.5,1,1,1.9,1.6,3,3.2-2.9,6-5.7,9.1-8.2,7.7-6.2,16.4-9.2,26.3-8.9,14.3.4,24.8,10.3,25.3,24.7.2,6.8-.4,13.6-1.2,20.4-2.1,17.5-4.5,34.9-6.8,52.4,0,.7-.4,1.4-.7,2.6h-16.8c.6-5.1,1-10.1,1.7-15.1,2.1-15.6,4.3-31.1,6.2-46.7.5-4.2,0-8.7-.7-12.9-1-5-4.4-8.4-9.4-9.6-11.6-2.7-20.5.3-26.3,9.4-4,6.4-6,13.5-7.1,20.8-2.4,16.9-4.6,33.8-6.9,50.6-.1,1.1-.4,2.2-.7,3.6Z"/>
  <path class="st0" d="M265.4,206.3c-1.3,7.3-2.2,13.3-3.6,19.1-.4,1.5-2,3.3-3.5,4-14.7,6.9-30.2,9.5-46.5,7.9-12.7-1.2-24.5-4.9-34.9-12.4-14.6-10.5-24.2-24.5-27.8-42.2-5.7-27.7-1.6-53.7,15.9-76.4,19.1-24.9,45-34,75.8-30.6,14.6,1.6,29.8,9,37.9,16.7-1.5,5.6-3,11.6-4.7,18.2-1.7-1.2-2.9-2-4-2.8-8.1-6.5-16.7-12-26.9-14.3-25.5-5.6-50.8,2.9-65.9,27.8-12,19.8-14,41.1-7.2,62.9,6.6,20.8,21.4,32.2,43,35.4,15.9,2.4,30.4-1.3,44.2-9,2.3-1.3,4.6-2.5,8.1-4.5Z"/>
  <path class="st0" d="M646.5,154.5c1-6.2,1.8-11.7,2.7-17.6h16.8c-4.2,32.1-8.4,63.9-12.6,96.3-5.5.7-10.8.3-17,.1.4-3.9.8-7.5,1.3-12.2-1.8,1.7-2.9,2.8-4,3.9-11.6,11.6-25.6,14.8-41.3,11.2-11.4-2.7-19.3-10-24.8-20.1-10.3-18.8-9.7-53.2,12.7-71.8,14-11.7,29.8-14,46.9-8.4,6.5,2.1,11.4,6.7,15.2,12.3,1.3,1.9,2.4,3.8,4,6.4ZM643,183.5c-.3-3.6-.4-7.2-.9-10.7-2.2-15.3-14.5-25.6-29.1-24.5-13.1,1-23,7.4-29.1,19-4.8,9.2-6.2,19-4.2,29.2,2.1,11.2,8,19.7,19,23.5,11.5,3.9,22.1,1.9,31.1-6.5,8.7-8.1,12.5-18.3,13.2-30Z"/>
  <path class="st0" d="M844.8,192c0-29.2,16.1-51.2,40.3-57.1,20.4-4.9,38.7-1.1,53,15.5,6.2,7.1,9.4,15.6,10,24.9.9,14.1-1.5,27.6-9.7,39.5-12.4,18-30,24.6-51.2,22.7-14.1-1.3-25.7-7.2-34-19-6.2-8.9-8.3-18.9-8.4-26.4ZM931.2,186c0-14.7-3.9-24.5-11.1-31-13.5-12.1-35.7-10.5-47.7,4.1-11.6,14.1-13.3,30.1-6.7,46.9,3.2,8.1,9.5,13.5,17.9,16.3,14.8,4.9,30.6-.3,39.7-13,5.6-7.8,7.7-16.7,7.9-23.2Z"/>
  <path class="st0" d="M832.8,147.7c-3.4,4.1-6.5,7.8-9.9,11.8-1.4-1.3-2.5-2.3-3.5-3.3-6.5-6.5-14.4-8.9-23.4-8.1-4.7.4-8.7,2.5-11.8,6.2-4.1,4.9-4.1,10,.7,14,3.7,3.1,8.1,5.5,12.4,7.8,4.5,2.5,9.2,4.5,13.8,6.7,21.2,10.2,16,40.2.3,49.4-15.5,9-45.8,7.9-60.1-13.2,3.3-4,6.8-8.1,10.6-12.5,1.6,2,2.9,3.6,4.2,5.2,7.4,9.2,17,12.9,28.7,11.1,7.5-1.2,12.8-6.2,13.5-12.6.4-3.6-.4-7-3.3-9.2-3.2-2.6-6.7-4.9-10.3-6.9-5.8-3.3-11.7-6.2-17.5-9.3-18.3-9.9-14.3-34.1-2.4-43.4,12.8-9.9,26.8-10.5,41.4-5.4,6.3,2.2,11.8,5.9,16.6,11.7Z"/>
  <path class="st0" d="M306,233.1h-17.4c7.2-54.6,14.3-108.8,21.6-163.6,5.6-.4,10.9-.3,17.2,0-7,54.6-14.2,108.8-21.4,163.5Z"/>
  <path class="st0" d="M984.6,233.3h-17.1c1.8-18.5,4.6-36.5,7-54.6,2.3-18,4.6-36,7-54,2.4-18.2,4.9-36.3,7.4-54.9h17.3c-7.2,54.6-14.3,108.7-21.4,163.5Z"/>
  <path class="st0" d="M698.2,136.7h16.9c-.6,4.3-1.2,8.3-1.9,13,3.5-3.6,6.5-7,9.8-10,3.7-3.4,8.2-5.5,13.2-6.3,4.7-.8,9.4-.6,14.5,2-1.3,5.4-2.6,10.8-4,16.6-1.5-.3-2.7-.4-3.9-.8-11.9-3.6-21.5.2-27.2,11.2-4.2,8-5.9,16.7-7.1,25.6-2,14.8-4,29.6-6.1,45-5.4,1-10.8.2-16.8.5,4.3-32.6,8.4-64.4,12.7-96.8Z"/>
  <path class="st0" d="M353.7,136.8h16c1.6,3.8-10.7,89.7-12.1,96.4h-16.7c4.3-32.3,8.5-64.2,12.7-96.4Z"/>
  <path class="st0" d="M366.9,102.7c-6.7.1-12.1-5.1-12.1-11.6,0-6.3,5.1-11.5,11.5-11.6,6.9-.1,12,4.8,12,11.6,0,6.5-4.9,11.5-11.4,11.6Z"/>
  <g>
    <path class="st0" d="M83.3,10.8c0-1.3,0-2.7,0-4-.5-6.1-3.5-8-9.2-6.2-7,2.2-14.1,4.4-21.1,6.6-15.4,4.9-31,8.9-47.4,7.8-1.6-.1-3.2.5-5.6.9,1.3,73.1,2.6,145.7,4,218.3,3.1-44.1,1.4-88.3,3.9-132.5.8,38,1.4,76.1,3.5,114.1.5-1.1.5-2.2.5-3.3,0-15.4-.1-30.7.3-46.1,1-38.9,2.2-77.7,3.4-116.6.1-4.5.8-9.1.6-13.6-.3-7.3-.1-7.9,7.1-9.7,10.8-2.8,21.7-5.5,32.4-8.4,5.4-1.4,10.7-3.2,16.4-5,1.2,82.1,2.3,163.8,3.4,246-10.6-4.1-20.5-8-30.4-11.7-1.8-.7-3.8-1.1-5.7-1.6.6.6,1.2,1.3,1.9,1.6,11.8,5.6,23.6,11.2,35.4,16.8.8.4,1.7.4,3,.7.1-2.5.3-4.6.4-6.6.3-23.5.6-47,1-70.5.4-28.1.8-56.1,1.1-84.2.3-24.1.4-48.2.7-72.3,0-4.3.4-8.5.7-13.2l.3-3.5c-.2-1.8-.4-2.9-.5-4Z"/>
    <path class="st0" d="M39.1,245.9c0,0,.1,0,.2,0,0,0,0,0-.1-.1h0Z"/>
    <path class="st0" d="M64.6,131.8c-6,1.6-11.8,2.7-16.7,6.8,4.9,3.8,12.6,2.4,18.9-3-.7-1.1-1.4-2.3-2.2-3.8Z"/>
    <path class="st0" d="M111.8,25.1c.3,19.9.7,39.8,1,59.7.5,40,1,80,1.6,120,.1,9.3.5,18.5.9,27.8,0,.7.9,1.4,1.4,2.2-.1-6.2-.5-12-.4-17.8.5-25,1.1-50,1.5-75.1.3-15.2.4-30.3.6-45.5.4-25.8.9-51.6,1.3-77.4,0-1.9-.8-3.8-1.2-6-11.9.6-23.2,1.1-34.7,1.7l-.3,3.5c9.8.9,18.8,1.7,28,2.5.1,1.7.3,3,.3,4.3Z"/>
    <path class="st0" d="M108.9,150.7c-.6-40.4-1-80.7-1.6-121.1,0-1.4-.3-2.9-.5-4.3h-6.6c0,.2,0,.3,0,.5,1.8.3,3.5.5,5.8.8,0,2,0,3.9,0,5.7-.2,6.2-.6,12.5-.7,18.7-.4,21.8-.8,43.6-1.1,65.4-.5,35.6-1,71.3-1.6,106.9,0,2.4,0,4.8,0,7.6-5.9.6-11.1,1.2-16.7,1.7-.5-56.3-.9-112-1.3-167.6-.3,0-.6,0-.8,0v189.8c.3,0,.6,0,.8,0,.6-6,1.1-11.9,1.7-17.9,7.8-.1,15.5,3.5,23.7-.6,0-4.7,0-9.4,0-14.1-.4-23.9-.8-47.8-1.2-71.6Z"/>
  </g>
</svg>