<svg id="Layer_1" height="512" viewBox="0 0 64 64" width="512" xmlns="http://www.w3.org/2000/svg" data-name="Layer 1"><path d="m52 59v-34a1 1 0 0 0 -1-1h-11.26a16.06 16.06 0 0 0 6.64-7h1.62a1 1 0 0 0 1-1v-4a1 1 0 0 0 -1-1h-26v-6a2 2 0 0 1 2-2h5a2 2 0 0 1 1.83 1.2 4 4 0 0 0 -2.83 3.8 1 1 0 0 0 1 1h6a1 1 0 0 0 1-1 4 4 0 0 0 -3.11-3.89 4 4 0 0 0 -3.89-3.11h-5a4 4 0 0 0 -4 4v1h-2v-1h-2v4h2v-1h2v3h-4a1 1 0 0 0 -1 1v4a1 1 0 0 0 1 1h1.62a16.06 16.06 0 0 0 6.64 7h-11.26a1 1 0 0 0 -1 1v34a1 1 0 0 0 1 1h.13l-1 1.45a1 1 0 0 0 -.05 1 1 1 0 0 0 .92.55h4a1 1 0 0 0 .6-.2l3.73-2.8h21.34l3.73 2.8a1 1 0 0 0 .6.2h4a1 1 0 0 0 .88-.53 1 1 0 0 0 -.05-1l-1-1.45h.17a1 1 0 0 0 1-1.02zm-20-53a2 2 0 0 1 1.73 1h-3.46a2 2 0 0 1 1.73-1zm-15 9v-2h30v2zm2.89 2h24.22a14 14 0 0 1 -24.22 0zm-3.22 44h-1.8l.67-1h2.46zm30.66 0-1.33-1h2.46l.67 1zm2.67-3h-36v-32h36z"/><path d="m17 56h30a1 1 0 0 0 1-1v-26a1 1 0 0 0 -1-1h-30a1 1 0 0 0 -1 1v26a1 1 0 0 0 1 1zm16-26h13v24h-13zm-15 0h13v24h-13z"/><path d="m34 41h2v4h-2z"/><path d="m28 41h2v4h-2z"/></svg>