<svg height="480pt" viewBox="0 0 480 480" width="480pt" xmlns="http://www.w3.org/2000/svg"><path d="m304 352h-128c-4.417969 0-8 3.582031-8 8v80c0 4.417969 3.582031 8 8 8h128c4.417969 0 8-3.582031 8-8v-80c0-4.417969-3.582031-8-8-8zm-8 80h-112v-64h112zm0 0"/><path d="m168 320h16v16h-16zm0 0"/><path d="m200 320h16v16h-16zm0 0"/><path d="m232 320h16v16h-16zm0 0"/><path d="m264 320h16v16h-16zm0 0"/><path d="m296 320h16v16h-16zm0 0"/><path d="m472 288h-144v-24c0-4.417969-3.582031-8-8-8h-24v16h16v16h-48v-16h16v-16h-24c-4.417969 0-8 3.582031-8 8v24h-16v-24c0-4.417969-3.582031-8-8-8h-24v16h16v16h-48v-16h16v-16h-24c-4.417969 0-8 3.582031-8 8v24h-120v-56c0-8.835938 7.164062-16 16-16s16 7.164062 16 16v8h16v-8c0-17.671875-14.328125-32-32-32s-32 14.328125-32 32v24h-16v16h16v16h-8c-4.417969 0-8 3.582031-8 8v176c0 4.417969 3.582031 8 8 8h464c4.417969 0 8-3.582031 8-8v-176c0-4.417969-3.582031-8-8-8zm-8 32h-112v-16h112zm0 40h-112v-24h48v8h16v-8h48zm-112 40v-24h48v8h16v-8h48v24zm-224 32h-48v-96h48zm-112 0v-96h48v96zm0-128h112v16h-112zm0 144h112v16h-112zm128-120v-24h192v160h-192zm208 136v-48h48v8h16v-8h48v48zm0 0"/><path d="m472 0h-128c-4.417969 0-8 3.582031-8 8v117.601562l-16-24v-93.601562c0-4.417969-3.582031-8-8-8h-144c-4.417969 0-8 3.582031-8 8v93.601562l-16 24v-117.601562c0-4.417969-3.582031-8-8-8h-128c-4.417969 0-8 3.582031-8 8v144c0 4.417969 3.582031 8 8 8h464c4.417969 0 8-3.582031 8-8v-144c0-4.417969-3.582031-8-8-8zm-344 144h-112v-128h112zm22.953125 0 23.703125-35.558594c.875-1.316406 1.339844-2.863281 1.34375-4.441406v-88h128v88c.003906 1.578125.46875 3.125 1.34375 4.441406l23.703125 35.558594zm313.046875 0h-112v-128h112zm0 0"/><path d="m368 112h80v16h-80zm0 0"/><path d="m32 112h80v16h-80zm0 0"/><path d="m192 32h16v16h-16zm0 0"/><path d="m192 64h16v40h-16zm0 0"/><path d="m32 360h16v16h-16zm0 0"/><path d="m96 360h16v16h-16zm0 0"/></svg>