<svg clip-rule="evenodd" fill-rule="evenodd" height="512" image-rendering="optimizeQuality" shape-rendering="geometricPrecision" text-rendering="geometricPrecision" viewBox="0 0 43.3492 43.3492" width="512" xmlns="http://www.w3.org/2000/svg"><g id="Layer_x0020_1"><g id="_213492136"><path id="_213492232" d="m17.5821 21.0693c-.2612 0-.4732-.212-.4732-.4732v-5.0971h-12.0504v5.097c0 .2613-.2121.4733-.4733.4733-.2613 0-.4733-.212-.4733-.4732v-5.5703c0-.2613.212-.4732.4733-.4732h12.9969c.2613 0 .4732.2119.4732.4732l.0001 5.5702c0 .2613-.2121.4733-.4733.4733z"/><path id="_213492544" d="m22.5401 26.6395c-.2612 0-.4732-.212-.4732-.4732l.0001-5.097h-17.0085v5.097c0 .2612-.2121.4732-.4733.4732-.2613 0-.4733-.212-.4733-.4732v-5.5703c0-.2612.212-.4732.4733-.4732h17.9549c.2613 0 .4732.212.4732.4733l.0001 5.5702c0 .2612-.212.4732-.4733.4732z"/><path id="_213492352" d="m27.4982 32.2088c-.2613 0-.4733-.212-.4733-.4732l.0001-5.0961h-21.9665v5.0961c0 .2612-.2121.4732-.4733.4732-.2613 0-.4733-.212-.4733-.4732v-5.5693c0-.2622.212-.4732.4733-.4732h22.913c.2612 0 .4731.211.4731.4732l.0001 5.5693c0 .2612-.212.4732-.4732.4732z"/><path id="_213491872" d="m32.4562 37.779c-.2613 0-.4733-.2119-.4733-.4732v-5.097h-26.9244v5.097c0 .2613-.2121.4732-.4733.4732-.2613 0-.4733-.2119-.4733-.4732v-5.5702c0-.2613.212-.4733.4733-.4733h27.871c.2612 0 .4732.212.4732.4733v5.5702c0 .2613-.212.4732-.4732.4732z"/><path id="_213491752" d="m5.0585 42.4028h31.8824v-4.6238h-31.8824zm32.3557.9465h-32.829c-.2613 0-.4733-.212-.4733-.4733v-5.5702c0-.2613.212-.4732.4733-.4732h32.829c.2613 0 .4732.2119.4732.4732l.0001 5.5702c0 .2613-.2121.4733-.4733.4733z"/><path id="_213491992" d="m35.1211 37.779c-.2613 0-.4733-.2119-.4733-.4732v-17.0637c0-.2622.2119-.4732.4732-.4732s.4732.211.4732.4732v17.0637c0 .2613-.212.4732-.4731.4732z"/><path id="_213491416" d="m12.285 15.499c-.2613 0-.4733-.2119-.4733-.4732v-11.3998c0-.2612.212-.4732.4732-.4732.2614 0 .4732.212.4732.4732l.0001 11.3998c0 .2612-.212.4732-.4732.4732z"/><path id="_213492088" d="m25.205 26.6395c-.2613 0-.4733-.212-.4733-.4732v-13.1399c0-.2613.212-.4732.4733-.4732s.4732.212.4732.4732l.0001 13.1399c0 .2612-.2121.4732-.4733.4732z"/><path id="_213491560" d="m4.88.9464c-.4387 0-.7957.3569-.7957.7946v.5679c0 .4377.3569.7946.7956.7946h7.3381c.0995 0 .197.0325.2779.0907l25.1964 18.3335c.1714.1242.3814.1745.5924.142.21-.0336.3943-.1459.5186-.3175l.3096-.4249c.2582-.3549.1794-.8538-.1756-1.1111l-25.7256-18.718c-.0641-.0473-.2406-.0956-.3579-.1281l-.0887-.0237h-7.8851zm33.2755 21.6796c-.3647 0-.7197-.1144-1.0194-.3332l-25.072-18.2429h-7.1841c-.9603 0-1.7421-.7807-1.7421-1.741v-.5679c0-.9602.7818-1.7411 1.742-1.7411h7.9503c.0424 0 .0847.006.1261.0168l.147.0404c.206.0562.4613.1262.6654.2751l25.7258 18.718c.7768.5649.9493 1.6573.3844 2.4332l-.3096.4258c-.274.3757-.6773.6222-1.1377.6951-.0916.0148-.1844.0217-.2761.0217z"/></g></g></svg>