<svg id="Capa_1" enable-background="new 0 0 512 512" height="512" viewBox="0 0 512 512" width="512" xmlns="http://www.w3.org/2000/svg"><g><path d="m195.758 94.129h-22.591c-4.142 0-7.5 3.357-7.5 7.5s3.358 7.5 7.5 7.5h22.591c4.142 0 7.5-3.357 7.5-7.5s-3.358-7.5-7.5-7.5z"/><path d="m414.137 176.901c4.143 0 7.5-3.357 7.5-7.5v-22.591c0-4.143-3.357-7.5-7.5-7.5s-7.5 3.357-7.5 7.5v22.591c0 4.143 3.357 7.5 7.5 7.5z"/><path d="m173.166 222.083h22.591c4.142 0 7.5-3.357 7.5-7.5s-3.358-7.5-7.5-7.5h-22.591c-4.142 0-7.5 3.357-7.5 7.5s3.358 7.5 7.5 7.5z"/><path d="m443.756 0h-60.745c-4.143 0-7.5 3.357-7.5 7.5s3.357 7.5 7.5 7.5h60.745c29.359 0 53.244 23.885 53.244 53.244v179.724c0 29.359-23.885 53.244-53.244 53.244-23.245 0-346.987 0-360.571 0h-14.94c-29.36 0-53.245-23.885-53.245-53.244v-42.341c0-4.143-3.358-7.5-7.5-7.5s-7.5 3.357-7.5 7.5v42.341c0 35.273 26.899 64.381 61.262 67.889-1.166 2.802-1.813 5.872-1.813 9.09v5.181c0 12.04 9.013 22.008 20.645 23.528l-29.597 124.326c-4.14 17.371 9.038 34.018 26.874 34.018 10.223 0 19.684-5.681 24.466-14.804l75.075-143.333h158.177l75.075 143.336c4.802 9.158 14.285 14.801 24.465 14.801 17.858 0 31.009-16.67 26.875-34.017l-29.625-124.438c11.259-1.848 19.879-11.643 19.879-23.417-.2-3.569.72-8.136-1.789-14.211 34.728-3.15 62.032-32.414 62.032-67.949v-179.724c-.001-37.63-30.615-68.244-68.245-68.244zm-355.206 490.235c-2.183 4.163-6.517 6.765-11.179 6.765-8.159 0-14.173-7.611-12.283-15.542l30.376-127.595h64.515zm358.362-8.776c1.888 7.918-4.115 15.541-12.283 15.541-4.595 0-8.967-2.547-11.179-6.763l-71.429-136.374h64.515zm-10.154-151.331c0 4.816-3.919 8.735-8.735 8.735-298.408.001-47.729-.002-344.838 0-4.817 0-8.735-3.919-8.735-8.735v-5.181c0-4.816 3.919-8.735 8.735-8.735h344.838c4.816 0 8.735 3.919 8.735 8.735z"/><path d="m7.5 177.986c4.142 0 7.5-3.357 7.5-7.5v-102.242c0-29.359 23.885-53.244 53.245-53.244h279.625c4.143 0 7.5-3.357 7.5-7.5s-3.357-7.5-7.5-7.5h-279.625c-37.631 0-68.245 30.614-68.245 68.244v102.242c0 4.143 3.358 7.5 7.5 7.5z"/><path d="m80.042 37.651c-23.375 0-42.391 19.017-42.391 42.391v78.064 78.064c0 23.374 19.016 42.391 42.391 42.391h208.84c23.374 0 42.391-19.017 42.391-42.391 0-42.457 0-131.35 0-156.128 0-23.374-19.017-42.391-42.391-42.391zm236.23 198.519c0 15.104-12.287 27.391-27.391 27.391h-208.839c-15.103 0-27.391-12.287-27.391-27.391v-70.564h263.621zm0-156.128v70.564h-263.621v-70.564c0-15.104 12.288-27.391 27.391-27.391h208.84c15.103 0 27.39 12.287 27.39 27.391z"/><path d="m353.924 236.17c0 23.374 19.017 42.391 42.391 42.391h35.643c23.374 0 42.391-19.017 42.391-42.391v-156.128c0-23.374-19.017-42.391-42.391-42.391h-35.643c-23.374 0-42.391 19.017-42.391 42.391zm15-156.128c0-15.104 12.287-27.391 27.391-27.391h35.643c15.103 0 27.391 12.287 27.391 27.391v156.128c0 15.104-12.287 27.391-27.391 27.391h-35.643c-15.104 0-27.391-12.287-27.391-27.391z"/></g></svg>