<svg id="Layer_1" enable-background="new 0 0 512 512" viewBox="0 0 512 512" xmlns="http://www.w3.org/2000/svg"><g id="Layer_2_00000013174434423916109390000012629603751054239124_"><g id="Layer_1_copy_9"><g id="_3"><path d="m382.2 80.4c0-10.1-8.2-18.2-18.2-18.2h-216c-10.1 0-18.2 8.2-18.3 18.2v365.6c0 10.1 8.2 18.2 18.2 18.2h49v30.9c0 9.2 7.5 16.7 16.7 16.8 2.6 0 5.1-.6 7.4-1.8l98.2-45.9h44.8c10.1 0 18.2-8.2 18.2-18.2v-17.8c.4-1.4.6-2.8.6-4.3v-334c0-1.5-.2-2.9-.6-4.3zm-234.2 369.3c-2 0-3.6-1.6-3.6-3.6v-365.7c0-2 1.6-3.6 3.6-3.6h204.4l-145 46.8c-.3.1-.6.2-.9.4-5.8 2.8-9.4 8.6-9.5 15v310.7zm66.9 47.3c-.1 0-.1.1-.2.1-1 .5-2.3.1-2.8-1-.1-.3-.2-.6-.2-.9v-356.2c0-.7.3-1.3.9-1.7l151.7-49c.3-.1.6-.2.9-.4.6-.3 1.4-.3 2 .1.2.1.3.2.4.3v337c-.2.2-.3.3-.5.4l-51 23.9-31.2 14.7zm152.7-51c0 2-1.6 3.6-3.6 3.6h-13.4l17-8z"/><path d="m383 0h-254c-33.9 0-61.4 27.5-61.4 61.4v387.9c0 8.3 6.7 15 15 15h12.8c8.3 0 15-6.7 15-15v-387.9c0-10.3 8.3-18.6 18.6-18.6h254c10.3 0 18.6 8.3 18.6 18.6v387.9c0 8.3 6.7 15 15 15h12.8c8.3 0 15-6.7 15-15v-387.9c0-33.9-27.5-61.4-61.4-61.4zm46.8 449.3c0 .2-.2.4-.4.4h-12.8c-.2 0-.4-.2-.4-.4v-387.9c0-18.4-14.9-33.2-33.2-33.2h-254c-18.4 0-33.3 14.9-33.3 33.2v387.9c0 .2-.2.4-.4.4h-12.7c-.2 0-.4-.2-.4-.4v-387.9c0-25.8 21-46.7 46.8-46.8h254c25.8 0 46.7 20.9 46.8 46.8z"/></g></g></g></svg>